<svg xmlns="http://www.w3.org/2000/svg" width="18.34" height="20" viewBox="0 0 18.34 20">
						<g id="simbolo_open_finance.HTML" transform="translate(-230.347 -215)">
							<path id="Caminho_504" data-name="Caminho 504" d="M314.972,268.009a8.455,8.455,0,0,0-3.215-3.176,8.765,8.765,0,0,0-3.843-1.153v3.91a4.209,4.209,0,0,1,2.762,1.309,5.331,5.331,0,0,1-.023,6.937,4.567,4.567,0,0,1-6.24.232l-2.774,2.774a8.208,8.208,0,0,0,5.733,2.207A8.75,8.75,0,0,0,311.8,279.9a8.391,8.391,0,0,0,3.191-3.224,8.838,8.838,0,0,0,1.139-4.271A8.54,8.54,0,0,0,314.972,268.009Z" transform="translate(-67.439 -46.049)" fill="#fff"></path>
							<g id="Grupo_25234" data-name="Grupo 25234" transform="translate(230.347 215)">
								<path id="Caminho_505" data-name="Caminho 505" d="M280.01,222.723a4.192,4.192,0,0,1,2.575-1.178V215a9.209,9.209,0,0,0-6.675,3.623Z" transform="translate(-273.447 -215)" fill="#fff"></path>
								<path id="Caminho_506" data-name="Caminho 506" d="M235.495,301.48a4.815,4.815,0,0,1,.776-2.423L232.1,294.89a9.56,9.56,0,0,0-1.685,6.589h5.076Z" transform="translate(-230.347 -290.572)" fill="#fff"></path>
								<path id="Caminho_507" data-name="Caminho 507" d="M236.768,435.13H231.68a8.535,8.535,0,0,0,3.086,5.189l2.815-2.815A4.835,4.835,0,0,1,236.768,435.13Z" transform="translate(-231.608 -423.231)" fill="#fff"></path>
							</g>
						</g>
					</svg>